Coordinates
version=1
nRows=11
nColumns=36
inDegrees=yes

Units are S.I. units (second, meters, Newtons, ...)
If the header above contains a line with 'inDegrees', this indicates whether rotational values are in degrees (yes) or radians (no).

endheader
time	pelvis_tilt	pelvis_list	pelvis_rotation	pelvis_tx	pelvis_ty	pelvis_tz	hip_flexion_r	hip_adduction_r	hip_rotation_r	knee_angle_r	knee_angle_r_beta	ankle_angle_r	subtalar_angle_r	mtp_angle_r	hip_flexion_l	hip_adduction_l	hip_rotation_l	knee_angle_l	knee_angle_l_beta	ankle_angle_l	subtalar_angle_l	mtp_angle_l	lumbar_extension	lumbar_bending	lumbar_rotation	arm_flex_r	arm_add_r	arm_rot_r	elbow_flex_r	pro_sup_r	arm_flex_l	arm_add_l	arm_rot_l	elbow_flex_l	pro_sup_l
      2.96666670	     -5.85106217	      4.08392817	     -2.64401279	      0.73890975	      0.81662555	     -0.02722737	     45.78486772	     -3.89055160	      3.70758004	     61.79430569	      1.07851409	     15.11690642	    -18.97524164	     -7.49999987	     46.59410511	     -5.65271772	     -6.04408016	     57.68813505	      1.00684790	      6.55771352	    -13.27436609	     -7.49999987	    -25.41492434	      1.83290537	     -4.37555350	     10.20936606	    -28.85358352	      0.50492864	     37.55410920	     70.30556701	     13.39680502	    -26.35313954	    -11.98805798	     39.68075818	     66.69834648
      2.98333330	     -5.96077299	      4.17008540	     -2.37004402	      0.74908015	      0.77904901	     -0.02946874	     51.19814054	     -4.03415656	      4.00228003	     73.17172453	      1.27708751	     24.06719276	    -17.84044536	     -7.49999987	     52.23059826	     -5.20022186	     -4.73836979	     69.29868301	      1.20949019	     13.41779221	    -17.29606040	     -7.49999987	    -26.97138969	      2.38058615	     -4.31277253	     12.22310003	    -29.49838501	      0.10809761	     38.38489246	     74.02690021	     16.07187658	    -26.84854970	    -11.31309597	     40.60955700	     67.21115869
      3.00000000	     -6.72793556	      4.18356808	     -1.67800479	      0.75359741	      0.75728020	     -0.02742247	     55.23314439	     -4.08406964	      4.20974979	     80.43824682	      1.40391225	     29.41987901	    -16.77985476	     -7.49999987	     56.74507992	     -4.49721698	     -3.27765110	     76.67392988	      1.33821253	     17.84161148	    -19.56366203	     -7.49999987	    -28.35080322	      2.41925534	     -4.05318386	     14.29707139	    -29.16235047	      0.19391109	     38.96132280	     74.00226773	     20.27579447	    -26.85324019	    -11.14522347	     42.29533366	     67.15299063
      3.01666670	     -8.63415348	      4.45243775	     -0.79140392	      0.76187364	      0.73321789	     -0.02810202	     59.28088177	     -4.56151257	      4.41463361	     85.54228567	      1.49299453	     33.71593373	    -14.82616132	     -7.49999987	     61.12308820	     -3.51594605	     -1.95220976	     81.73850921	      1.42660611	     21.24529020	    -19.58867144	     -7.49999987	    -28.77156236	      1.80626005	     -2.22592950	     15.83801092	    -29.51351723	      1.17153756	     38.06950203	     75.18019136	     27.43937488	    -25.92021944	     -7.64708485	     41.11107741	     67.68918114
      3.03333330	    -11.10075820	      4.69304876	     -0.67960834	      0.76803329	      0.71171722	     -0.02728795	     63.41880989	     -4.45430498	      4.87191803	     89.07780319	      1.55470096	     36.38581550	    -13.14650494	     -7.49999987	     65.45088882	     -3.19542838	     -1.22365958	     85.30545518	      1.48886106	     23.34671925	    -19.67053538	     -7.49999987	    -28.64488876	      1.08324269	     -1.18864070	     19.19661264	    -28.91286891	      1.52262953	     37.74134467	     75.58626187	     32.70744854	    -25.06899891	     -6.91365017	     41.58902352	     67.82379618
      3.05000000	    -13.18476195	      5.05976773	     -0.96010218	      0.77124728	      0.69378024	     -0.03214857	     67.21712815	     -4.37789601	      5.56310762	     92.21784189	      1.60950497	     37.50975481	    -11.93805395	     -7.49999987	     68.82835565	     -2.97240721	     -1.08100716	     87.83815925	      1.53306509	     25.31214120	    -19.37442471	     -7.49999987	    -28.27784039	      0.32976585	      0.38788269	     23.00577771	    -28.84650130	      2.98016475	     35.85413752	     76.67345025	     39.97412480	    -23.41454823	     -3.80470885	     38.07783334	     68.10536480
      3.06666670	    -15.03044430	      5.46597492	     -0.91364423	      0.77185190	      0.68255856	     -0.03140944	     70.32730155	     -4.43057371	      6.16680315	     94.48201788	      1.64902230	     38.10684147	    -11.44945285	     -7.49999987	     71.69833995	     -2.57762742	     -0.95640162	     89.62196043	      1.56419829	     25.83483634	    -19.85695182	     -7.49999987	    -28.36038794	     -0.37334632	      1.27729209	     27.49096320	    -28.50772951	      3.71158199	     35.02420843	     75.99239871	     46.62707975	    -21.88182341	     -2.44514249	     36.22509184	     67.28202314
      3.08333330	    -17.01313486	      5.87058791	     -0.36683850	      0.77669922	      0.66780351	     -0.03118617	     73.36588758	     -4.85194709	      6.61032207	     96.64131471	      1.68670914	     38.65588051	    -11.67253344	     -7.49999987	     74.71213014	     -2.20187274	     -1.06309350	     91.17862938	      1.59136729	     26.59837249	    -19.58552378	     -7.49999987	    -27.80554631	     -0.88672686	      1.09704129	     31.46319252	    -27.79439808	      3.43839065	     35.94077490	     76.19333046	     51.68798125	    -20.98564111	     -2.53343851	     36.12209385	     67.21468873
      3.10000000	    -18.34533121	      5.91326422	      0.46083273	      0.80302166	      0.66147447	     -0.03255000	     73.83377731	     -5.41720818	      6.89724107	     97.90223288	      1.70871631	     40.19773247	    -11.83794916	     -7.49999987	     75.68201015	     -1.91387167	     -0.97526452	     92.36707766	      1.61210963	     27.87923906	    -18.61020386	     -7.49999987	    -26.69128016	     -0.99438690	      1.44836261	     33.55348682	    -27.03167632	      0.78955572	     35.90830489	     76.79163937	     55.36102316	    -19.02585426	     -4.20951938	     35.21047790	     66.74312813
      3.11666670	    -20.13231100	      6.01130526	      1.28980661	      0.81400097	      0.65381402	     -0.03280773	     74.25726701	     -5.95593291	      7.04997701	     98.41167874	      1.71760782	     41.65993367	    -12.28025975	     -7.49999987	     76.83002484	     -1.76357375	     -1.19555225	     93.53120835	      1.63242754	     29.86534026	    -17.24366851	     -7.49999987	    -24.85423087	     -1.25014083	      1.62062552	     33.81867850	    -26.56430294	     -4.05594746	     39.13184005	     77.75125027	     57.34504059	    -17.71629889	     -7.25596288	     37.65688513	     66.63362150
      3.13333330	    -21.66396270	      6.15389900	      2.06879638	      0.81742600	      0.64997160	     -0.03094305	     74.88830826	     -6.24159524	      7.22395811	     98.90283319	      1.72618008	     42.81977036	    -12.88095762	     -7.49999987	     77.40309299	     -1.51663466	     -1.36589282	     93.81749284	      1.63742415	     31.76832258	    -15.62996239	     -7.49999987	    -23.18242894	     -1.76908501	      1.60048644	     34.09766138	    -26.43410149	     -8.29439970	     43.03429701	     78.99801649	     60.32048968	    -17.36015237	     -8.04849561	     38.59591942	     67.34683148
